#!OML:ASF H:\GeneralSubjects\Female5\Project 1\Capture day 1\Session 1\Female5.ASF
:FULLY-SPECIFIED
:DEGREES
193
root 2.42915 16.253 0.848658 181.321 -42.512 166.668
lowerback 15.054 0.958311 8.58427
upperback -4.20203 3.32321 4.48284
thorax -13.0215 0.985211 -0.680995
lowerneck -5.47695 6.13009 9.94571
upperneck 35.2713 6.91774 -5.95525
head 13.3874 2.83446 -3.40707
rclavicle 2.3059e-014 -4.45278e-014
rhumerus -93.6738 26.6592 -110.935
rradius 65.1501
rwrist -21.641
rhand -30.771 1.34778
rfingers 7.12502
rthumb -4.062 -28.5932
lclavicle 2.3059e-014 -4.45278e-014
lhumerus -43.4324 -7.68169 52.8381
lradius 62.6519
lwrist -5.88745
lhand -34.9235 30.9385
lfingers 7.12502
lthumb -8.07092 60.7644
rfemur -37.0424 -7.99261 17.9639
rtibia 88.9533
rfoot -20.1985 -17.0535
rtoes 32.7225
lfemur -26.5342 29.8957 -35.5903
ltibia 77.2512
lfoot -12.8447 3.79065
ltoes -69.8361
194
root 2.41878 16.2572 0.836262 181.278 -42.7489 166.812
lowerback 15.0299 0.997 8.58859
upperback -4.24317 3.37671 4.48152
thorax -13.0509 1.00781 -0.69711
lowerneck -4.97677 6.02101 9.96097
upperneck 35.7626 6.63815 -5.78334
head 13.4668 2.70721 -3.41061
rclavicle -2.8625e-014 7.63333e-014
rhumerus -93.7565 26.3344 -110.794
rradius 65.2525
rwrist -21.7061
rhand -30.8382 0.911926
rfingers 7.12502
rthumb -4.12694 -29.0278
lclavicle -2.8625e-014 7.63333e-014
lhumerus -41.2722 -7.582 48.9394
lradius 62.7653
lwrist -4.85495
lhand -34.7407 30.4357
lfingers 7.12502
lthumb -7.89453 60.2683
rfemur -36.9747 -8.73119 18.2784
rtibia 88.0606
rfoot -21.1234 -14.1027
rtoes 32.2655
lfemur -26.2389 29.9567 -35.3716
ltibia 77.0907
lfoot -12.659 4.02599
ltoes -69.9869
195
root 2.40461 16.2632 0.828087 181.245 -42.9754 166.923
lowerback 15.0664 1.03821 8.60432
upperback -4.26679 3.44252 4.48367
thorax -13.0955 1.035 -0.720365
lowerneck -4.68012 5.90831 9.73156
upperneck 36.2048 6.37645 -5.55644
head 13.556 2.5637 -3.33945
rclavicle 5.24792e-014 2.54444e-014
rhumerus -93.7512 26.0106 -110.588
rradius 65.3536
rwrist -21.8562
rhand -30.749 -0.0708848
rfingers 7.12502
rthumb -4.04076 -30.0123
lclavicle 5.24792e-014 2.54444e-014
lhumerus -39.0477 -7.04771 45.0397
lradius 62.6245
lwrist -3.77176
lhand -34.7902 30.6805
lfingers 7.12502
lthumb -7.94228 60.5113
rfemur -36.7185 -9.64621 18.5705
rtibia 86.9431
rfoot -22.3856 -11.5761
rtoes 30.9104
lfemur -26.0779 30.0091 -35.2263
ltibia 77.0396
lfoot -12.5823 4.23063
ltoes -69.8321
196
root 2.38984 16.2734 0.826521 181.297 -43.1955 166.876
lowerback 15.1152 1.08347 8.60876
upperback -4.21049 3.50424 4.43164
thorax -13.0505 1.06549 -0.799144
lowerneck -4.37747 5.79917 9.61627
upperneck 36.4443 6.16721 -5.4599
head 13.5691 2.45308 -3.3248
rclavicle -3.65764e-014 -3.49861e-014
rhumerus -93.645 25.7347 -110.425
rradius 65.4453
rwrist -21.9967
rhand -30.912 -0.834286
rfingers 7.12502
rthumb -4.19812 -30.7727
lclavicle -3.65764e-014 -3.49861e-014
lhumerus -36.67 -6.10253 41.1946
lradius 62.2168
lwrist -2.58958
lhand -34.7864 30.9975
lfingers 7.12502
lthumb -7.9386 60.8284
rfemur -36.4321 -10.6063 18.7131
rtibia 85.9473
rfoot -23.6582 -9.68127
rtoes 29.7675
lfemur -25.9124 30.0174 -35.224
ltibia 76.8092
lfoot -12.7808 4.18533
ltoes -69.7073
197
root 2.38055 16.2854 0.82905 181.254 -43.3941 166.934
lowerback 15.3141 1.12498 8.64219
upperback -4.15452 3.58896 4.43704
thorax -13.0981 1.10162 -0.838737
lowerneck -4.21744 5.73242 9.44348
upperneck 36.655 6.02467 -5.32703
head 13.6032 2.3725 -3.27126
rclavicle -2.06736e-014 -6.04305e-014
rhumerus -93.5192 25.5716 -110.338
rradius 65.4194
rwrist -22.297
rhand -31.1503 -0.946407
rfingers 7.12502
rthumb -4.42826 -30.8801
lclavicle -2.06736e-014 -6.04305e-014
lhumerus -34.3679 -4.83579 37.5845
lradius 61.6887
lwrist -1.31032
lhand -34.83 32.3579
lfingers 7.12502
lthumb -7.98071 62.1873
rfemur -36.0235 -11.3983 18.9635
rtibia 84.8979
rfoot -25.3361 -8.09282
rtoes 29.015
lfemur -25.7762 30.1437 -35.1259
ltibia 76.5921
lfoot -13.0993 4.02189
ltoes -69.6617
198
root 2.37439 16.296 0.832927 181.165 -43.5476 167.001
lowerback 15.5926 1.1789 8.5533
upperback -4.11355 3.68295 4.52327
thorax -13.2233 1.15104 -0.72425
lowerneck -3.81408 5.67202 9.49339
upperneck 36.6571 5.96497 -5.43313
head 13.5169 2.3374 -3.33903
rclavicle -6.20208e-014 -4.13472e-014
rhumerus -93.4704 25.427 -110.181
rradius 65.3488
rwrist -22.7964
rhand -31.3639 -0.964179
rfingers 7.12502
rthumb -4.63456 -30.8935
lclavicle -6.20208e-014 -4.13472e-014
lhumerus -32.1097 -3.38607 34.3712
lradius 60.8328
lwrist 0.290534
lhand -35.2154 33.6961
lfingers 7.12502
lthumb -8.35261 63.5109
rfemur -35.3147 -11.9868 19.262
rtibia 83.3572
rfoot -27.7856 -6.06652
rtoes 26.7379
lfemur -25.5821 30.4372 -35.0012
ltibia 76.5084
lfoot -13.5921 3.86252
ltoes -69.5909
199
root 2.36742 16.3073 0.838411 181.138 -43.6441 167.01
lowerback 15.6863 1.25337 8.44908
upperback -4.00289 3.77006 4.60159
thorax -13.1554 1.20748 -0.605433
lowerneck -3.60818 5.61847 9.42471
upperneck 36.7052 5.90433 -5.4697
head 13.4856 2.2942 -3.35551
rclavicle -2.8625e-014 5.08889e-014
rhumerus -93.397 25.2869 -110.009
rradius 65.3045
rwrist -23.1191
rhand -31.6389 -0.920211
rfingers 7.12502
rthumb -4.90007 -30.8436
lclavicle -2.8625e-014 5.08889e-014
lhumerus -29.8493 -1.63485 31.4635
lradius 59.6703
lwrist 1.79798
lhand -35.7418 33.9268
lfingers 7.12502
lthumb -8.86069 63.7208
rfemur -34.5874 -12.4694 19.5946
rtibia 81.73
rfoot -30.5393 -3.52799
rtoes 24.115
lfemur -25.309 30.7647 -34.9308
ltibia 76.3957
lfoot -13.9598 3.82481
ltoes -69.7455
200
root 2.35664 16.3209 0.844508 181.129 -43.7187 167.041
lowerback 15.6773 1.31047 8.43805
upperback -3.88008 3.83571 4.66462
thorax -13.007 1.24862 -0.547373
lowerneck -3.47064 5.58227 9.52569
upperneck 36.7416 5.88177 -5.61912
head 13.4802 2.27974 -3.44107
rclavicle -8.74653e-015 -1.01778e-013
rhumerus -93.3282 25.2083 -109.914
rradius 65.2534
rwrist -23.1033
rhand -32.1119 -0.88833
rfingers 7.12502
rthumb -5.35678 -30.8006
lclavicle -8.74653e-015 -1.01778e-013
lhumerus -27.9812 0.486661 28.7758
lradius 58.7686
lwrist 2.89755
lhand -36.5023 34.1709
lfingers 7.12502
lthumb -9.5945 63.9325
rfemur -33.9265 -12.9179 19.981
rtibia 80.4556
rfoot -32.4826 -0.598954
rtoes 23.059
lfemur -24.8297 30.8553 -34.7582
ltibia 75.9552
lfoot -14.2499 3.33425
ltoes -69.5857
201
root 2.34285 16.3333 0.849653 181.165 -43.8158 166.976
lowerback 15.7802 1.35449 8.40554
upperback -3.83714 3.89995 4.69301
thorax -13.0187 1.28231 -0.517505
lowerneck -3.25301 5.51153 9.52135
upperneck 36.6519 5.82934 -5.73682
head 13.3898 2.24405 -3.49492
rclavicle 5.56597e-015 1.04958e-013
rhumerus -93.3885 25.0552 -109.844
rradius 65.2278
rwrist -23.0077
rhand -32.5872 -1.07039
rfingers 7.12502
rthumb -5.81568 -30.9706
lclavicle 5.56597e-015 1.04958e-013
lhumerus -26.4607 2.59946 26.4359
lradius 58.188
lwrist 3.89766
lhand -37.3382 34.0421
lfingers 7.12502
lthumb -10.4009 63.7649
rfemur -33.1317 -13.3886 20.1585
rtibia 79.4863
rfoot -33.017 2.74014
rtoes 23.8597
lfemur -24.1575 30.8053 -34.5836
ltibia 75.2995
lfoot -14.4837 2.87602
ltoes -69.5678
202
root 2.32704 16.3429 0.854417 181.313 -43.9612 166.771
lowerback 15.8839 1.36729 8.30172
upperback -3.83486 3.91203 4.71194
thorax -13.0854 1.29492 -0.444816
lowerneck -2.92444 5.49973 9.20538
upperneck 36.5131 5.81165 -5.51865
head 13.2318 2.22308 -3.3518
rclavicle -1.74931e-014 1.30403e-013
rhumerus -93.5413 24.9747 -109.74
rradius 65.3031
rwrist -23.0755
rhand -32.7837 -1.25683
rfingers 7.12502
rthumb -6.00536 -31.1517
lclavicle -1.74931e-014 1.30403e-013
lhumerus -25.1573 4.6284 24.4908
lradius 57.6558
lwrist 4.73682
lhand -37.8123 33.5471
lfingers 7.12502
lthumb -10.8582 63.2464
rfemur -32.3552 -13.7375 20.0326
rtibia 78.8919
rfoot -33.066 5.10304
rtoes 20.5547
lfemur -23.5429 30.8215 -34.5621
ltibia 74.7396
lfoot -15.2678 2.61537
ltoes -70.4109
203
root 2.30764 16.3497 0.8585 181.49 -44.1227 166.628
lowerback 15.8278 1.36714 8.31722
upperback -3.84672 3.9092 4.7171
thorax -13.0651 1.29313 -0.445227
lowerneck -2.64713 5.4917 8.8171
upperneck 36.3753 5.76253 -5.16301
head 13.0759 2.19541 -3.14462
rclavicle 6.04305e-014 1.39944e-013
rhumerus -93.6579 24.9042 -109.638
rradius 65.4267
rwrist -23.1465
rhand -32.8036 -1.33323
rfingers 7.12502
rthumb -6.02462 -31.2276
lclavicle 6.04305e-014 1.39944e-013
lhumerus -24.0342 6.48552 22.8402
lradius 57.2361
lwrist 5.34114
lhand -38.2436 33.9698
lfingers 7.12502
lthumb -11.2742 63.6468
rfemur -31.8205 -13.8667 19.8466
rtibia 78.7623
rfoot -33.1914 5.15431
rtoes 21.7766
lfemur -23.1186 30.7974 -34.5201
ltibia 74.4016
lfoot -16.6468 1.71107
ltoes -71.1926
